<?xml version="1.0" standalone="no"?><!DOCTYPE svg PUBLIC "-//W3C//DTD SVG 1.1//EN" "http://www.w3.org/Graphics/SVG/1.1/DTD/svg11.dtd"><svg t="1734398081292" class="icon" viewBox="0 0 1024 1024" version="1.1" xmlns="http://www.w3.org/2000/svg" p-id="8061" xmlns:xlink="http://www.w3.org/1999/xlink" width="200" height="200"><path d="M379.112727 212.712727h163.607273c18.152727 0 33.047273 14.894545 33.047273 33.047273v1.861818c0 18.152727-14.894545 33.047273-33.047273 33.047273h-163.607273c-18.152727 0-33.047273-14.894545-33.047272-33.047273v-1.861818c0-18.152727 14.894545-33.047273 33.047272-33.047273z m428.916364 528.989091c0 18.152727-14.894545 33.047273-33.047273 33.047273H379.112727c-18.152727 0-33.047273-14.894545-33.047272-33.047273 0-18.152727 14.894545-33.047273 33.047272-33.047273H774.981818c18.385455 0 33.047273 14.661818 33.047273 33.047273z m-98.909091-164.305454c0 18.152727-14.894545 33.047273-33.047273 33.047272H379.112727c-18.152727 0-33.047273-14.894545-33.047272-33.047272 0-18.152727 14.894545-33.047273 33.047272-33.047273h296.96c18.385455 0 33.047273 14.661818 33.047273 33.047273z m98.909091-164.305455c0 18.152727-14.894545 33.047273-33.047273 33.047273H379.112727c-18.152727 0-33.047273-14.894545-33.047272-33.047273 0-18.152727 14.894545-33.047273 33.047272-33.047273H774.981818c18.385455 0 33.047273 14.661818 33.047273 33.047273zM248.087273 116.363636v658.385455c0 18.385455-15.127273 33.28-33.512728 33.28-18.385455 0-33.28-14.894545-33.28-33.28V215.272727H116.363636v576.698182c0 63.767273 51.665455 115.432727 115.2 115.432727l560.64 0.232728A115.432727 115.432727 0 0 0 907.636364 792.203636V116.363636H248.087273z" fill="#74A9FF" p-id="8062"></path></svg>