<?xml version="1.0" standalone="no"?><!DOCTYPE svg PUBLIC "-//W3C//DTD SVG 1.1//EN" "http://www.w3.org/Graphics/SVG/1.1/DTD/svg11.dtd"><svg t="1734397884425" class="icon" viewBox="0 0 1024 1024" version="1.1" xmlns="http://www.w3.org/2000/svg" p-id="5074" xmlns:xlink="http://www.w3.org/1999/xlink" width="200" height="200"><path d="M469.333333 128c-87.338667 0-174.72 33.322667-241.365333 99.968-133.290667 133.290667-133.290667 349.44 0 482.730667A340.309333 340.309333 0 0 0 469.333333 810.666667c87.338667 0 174.72-33.322667 241.365334-99.968 133.290667-133.290667 133.290667-349.44 0-482.730667A340.309333 340.309333 0 0 0 469.333333 128m0 85.333333c68.394667 0 132.650667 26.624 181.034667 74.965334A254.421333 254.421333 0 0 1 725.333333 469.333333c0 68.394667-26.624 132.650667-74.965333 181.034667A254.421333 254.421333 0 0 1 469.333333 725.333333a254.421333 254.421333 0 0 1-181.034666-74.965333A254.421333 254.421333 0 0 1 213.333333 469.333333c0-68.394667 26.624-132.650667 74.965334-181.034666A254.421333 254.421333 0 0 1 469.333333 213.333333" fill="#2C52FF" p-id="5075"></path><path d="M665.429333 665.429333a42.666667 42.666667 0 0 1 60.352 0l90.538667 90.538667a42.666667 42.666667 0 0 1-60.352 60.352l-90.538667-90.538667a42.666667 42.666667 0 0 1 0-60.352zM329.749333 540.586667a42.666667 42.666667 0 0 1 58.282667 15.594666 76.821333 76.821333 0 0 0 104.917333 28.117334 42.666667 42.666667 0 1 1 42.666667 73.898666 162.154667 162.154667 0 0 1-221.482667-59.349333 42.666667 42.666667 0 0 1 15.616-58.282667z" fill="#2C52FF" p-id="5076"></path></svg>